<svg width="1046" height="68" viewBox="0 0 1046 68" fill="none" xmlns="http://www.w3.org/2000/svg">
<path fill-rule="evenodd" clip-rule="evenodd" d="M-4 -2.02844H521.246L453.101 67.3516L388.276 1.35154L323.45 67.3516L258.625 1.35154L193.8 67.3516L128.975 1.35152L64.1451 67.3516L-4 -2.02844ZM132.295 0.731558L193.8 63.3516L255.305 0.731558H132.295ZM125.655 0.731558H2.63966L64.1451 63.3516L125.655 0.731558ZM391.596 0.731558L453.101 63.3516L514.606 0.731558H391.596ZM384.956 0.731558H261.945L323.45 63.3516L384.956 0.731558Z" fill="white" fill-opacity="0.9" style="mix-blend-mode:overlay"/>
<path fill-rule="evenodd" clip-rule="evenodd" d="M520.587 -2.02844H1045.83L977.688 67.3516L912.863 1.35154L848.037 67.3516L783.212 1.35154L718.387 67.3516L653.562 1.35152L588.732 67.3516L520.587 -2.02844ZM656.882 0.731558L718.387 63.3516L779.892 0.731558H656.882ZM650.242 0.731558H527.227L588.732 63.3516L650.242 0.731558ZM916.182 0.731558L977.688 63.3516L1039.19 0.731558H916.182ZM909.543 0.731558H786.532L848.037 63.3516L909.543 0.731558Z" fill="white" fill-opacity="0.9" style="mix-blend-mode:overlay"/>
</svg>
